# xmcd CD database file
#
# Track frame offsets:
#	150
#	16110
#	30100
#	48674
#	66976
#	83551
#	97322
#	112364
#	127706
#	146277
#	164290
#	183212
#	200901
#	219903
#	245694
#	272711
#	292797
#	311347
#
# Disc length: 4317 seconds
#
# Revision: 0
# Processed by: cddbd v1.5.1PL0 Copyright (c) Steve Scherf et al.
# Submitted via: CDex 1.51
#
DISCID=f910db12
DTITLE=Pimsleur - American English
DYEAR=1999
DGENRE=Speech
TTITLE0=Reading 04
TTITLE1=Reading 05
TTITLE2=Reading 06
TTITLE3=Reading 07
TTITLE4=Reading 08
TTITLE5=Reading 09
TTITLE6=Reading 10
TTITLE7=Reading 11
TTITLE8=Reading 12
TTITLE9=Reading 13
TTITLE10=Reading 14
TTITLE11=Reading 15
TTITLE12=Reading 16
TTITLE13=Reading 17
TTITLE14=Reading 18
TTITLE15=Reading 19
TTITLE16=Reading 20
TTITLE17=Reading 21
EXTD=YEAR: 1999
EXTT0=
EXTT1=
EXTT2=
EXTT3=
EXTT4=
EXTT5=
EXTT6=
EXTT7=
EXTT8=
EXTT9=
EXTT10=
EXTT11=
EXTT12=
EXTT13=
EXTT14=
EXTT15=
EXTT16=
EXTT17=
PLAYORDER=
